<mxfile host="app.diagrams.net" agent="Mozilla/5.0 (Windows NT 10.0; Win64; x64) AppleWebKit/537.36 (KHTML, like Gecko) Chrome/135.0.0.0 Safari/537.36" version="26.2.14">
  <diagram name="Page-1" id="2-zSG57XXswy_yiP-QLy">
    <mxGraphModel dx="2549" dy="943" grid="1" gridSize="10" guides="1" tooltips="1" connect="1" arrows="1" fold="1" page="1" pageScale="1" pageWidth="827" pageHeight="1169" math="0" shadow="0">
      <root>
        <mxCell id="0" />
        <mxCell id="1" parent="0" />
        <mxCell id="letPco1XqqsJ-30KLWcD-4" value="" style="html=1;whiteSpace=wrap;" vertex="1" parent="1">
          <mxGeometry x="-40" y="310" width="950" height="560" as="geometry" />
        </mxCell>
        <mxCell id="letPco1XqqsJ-30KLWcD-3" style="edgeStyle=orthogonalEdgeStyle;rounded=0;orthogonalLoop=1;jettySize=auto;html=1;entryX=0.5;entryY=0;entryDx=0;entryDy=0;entryPerimeter=0;" edge="1" parent="1" source="letPco1XqqsJ-30KLWcD-1" target="letPco1XqqsJ-30KLWcD-2">
          <mxGeometry relative="1" as="geometry">
            <mxPoint x="399" y="190" as="targetPoint" />
          </mxGeometry>
        </mxCell>
        <mxCell id="letPco1XqqsJ-30KLWcD-1" value="User" style="shape=umlActor;verticalLabelPosition=bottom;verticalAlign=top;html=1;outlineConnect=0;" vertex="1" parent="1">
          <mxGeometry x="384" y="80" width="30" height="60" as="geometry" />
        </mxCell>
        <mxCell id="letPco1XqqsJ-30KLWcD-2" value="Not Registered User" style="shape=umlActor;verticalLabelPosition=bottom;verticalAlign=top;html=1;outlineConnect=0;" vertex="1" parent="1">
          <mxGeometry x="340" y="200" width="30" height="60" as="geometry" />
        </mxCell>
        <mxCell id="letPco1XqqsJ-30KLWcD-5" value="Book Fair" style="text;html=1;align=center;verticalAlign=middle;whiteSpace=wrap;rounded=0;fontStyle=1" vertex="1" parent="1">
          <mxGeometry x="370" y="320" width="60" height="30" as="geometry" />
        </mxCell>
        <mxCell id="letPco1XqqsJ-30KLWcD-11" value="" style="group;fontStyle=1" vertex="1" connectable="0" parent="1">
          <mxGeometry x="40" y="375" width="340" height="210" as="geometry" />
        </mxCell>
        <mxCell id="letPco1XqqsJ-30KLWcD-6" value="" style="shape=folder;fontStyle=1;spacingTop=10;tabWidth=40;tabHeight=14;tabPosition=left;html=1;whiteSpace=wrap;" vertex="1" parent="letPco1XqqsJ-30KLWcD-11">
          <mxGeometry width="340" height="210" as="geometry" />
        </mxCell>
        <mxCell id="letPco1XqqsJ-30KLWcD-7" value="Accounts" style="text;html=1;align=center;verticalAlign=middle;whiteSpace=wrap;rounded=0;fontStyle=1" vertex="1" parent="letPco1XqqsJ-30KLWcD-11">
          <mxGeometry x="117.38095238095237" y="15" width="97.14285714285714" height="45" as="geometry" />
        </mxCell>
        <mxCell id="letPco1XqqsJ-30KLWcD-8" value="[U001] Login" style="ellipse;whiteSpace=wrap;html=1;" vertex="1" parent="letPco1XqqsJ-30KLWcD-11">
          <mxGeometry x="36.42857142857142" y="60" width="105.23809523809521" height="60" as="geometry" />
        </mxCell>
        <mxCell id="letPco1XqqsJ-30KLWcD-9" value="[U002] Logout" style="ellipse;whiteSpace=wrap;html=1;" vertex="1" parent="letPco1XqqsJ-30KLWcD-11">
          <mxGeometry x="190.2380952380952" y="60" width="105.23809523809521" height="60" as="geometry" />
        </mxCell>
        <mxCell id="letPco1XqqsJ-30KLWcD-10" value="[U003] Register" style="ellipse;whiteSpace=wrap;html=1;" vertex="1" parent="letPco1XqqsJ-30KLWcD-11">
          <mxGeometry x="109.28571428571428" y="135" width="105.23809523809521" height="60" as="geometry" />
        </mxCell>
        <mxCell id="letPco1XqqsJ-30KLWcD-13" value="" style="shape=folder;fontStyle=1;spacingTop=10;tabWidth=40;tabHeight=14;tabPosition=left;html=1;whiteSpace=wrap;" vertex="1" parent="1">
          <mxGeometry x="440" y="380" width="350" height="210" as="geometry" />
        </mxCell>
        <mxCell id="letPco1XqqsJ-30KLWcD-57" style="edgeStyle=orthogonalEdgeStyle;rounded=0;orthogonalLoop=1;jettySize=auto;html=1;entryX=0;entryY=0.5;entryDx=0;entryDy=0;" edge="1" parent="1" source="letPco1XqqsJ-30KLWcD-2" target="letPco1XqqsJ-30KLWcD-10">
          <mxGeometry relative="1" as="geometry">
            <Array as="points">
              <mxPoint y="230" />
              <mxPoint y="540" />
            </Array>
          </mxGeometry>
        </mxCell>
        <mxCell id="letPco1XqqsJ-30KLWcD-14" value="Navigations" style="text;html=1;align=center;verticalAlign=middle;whiteSpace=wrap;rounded=0;fontStyle=1" vertex="1" parent="1">
          <mxGeometry x="585" y="400" width="60" height="30" as="geometry" />
        </mxCell>
        <mxCell id="letPco1XqqsJ-30KLWcD-15" value="[U004] View Events" style="ellipse;whiteSpace=wrap;html=1;" vertex="1" parent="1">
          <mxGeometry x="490" y="430" width="80" height="60" as="geometry" />
        </mxCell>
        <mxCell id="letPco1XqqsJ-30KLWcD-16" value="[U005] View Registered Event" style="ellipse;whiteSpace=wrap;html=1;" vertex="1" parent="1">
          <mxGeometry x="650" y="430" width="90" height="60" as="geometry" />
        </mxCell>
        <mxCell id="letPco1XqqsJ-30KLWcD-17" value="" style="shape=folder;fontStyle=1;spacingTop=10;tabWidth=40;tabHeight=14;tabPosition=left;html=1;whiteSpace=wrap;" vertex="1" parent="1">
          <mxGeometry x="440" y="630" width="350" height="220" as="geometry" />
        </mxCell>
        <mxCell id="letPco1XqqsJ-30KLWcD-18" value="" style="shape=folder;fontStyle=1;spacingTop=10;tabWidth=40;tabHeight=14;tabPosition=left;html=1;whiteSpace=wrap;" vertex="1" parent="1">
          <mxGeometry x="34" y="630" width="350" height="210" as="geometry" />
        </mxCell>
        <mxCell id="letPco1XqqsJ-30KLWcD-19" value="Events" style="text;html=1;align=center;verticalAlign=middle;whiteSpace=wrap;rounded=0;fontStyle=1" vertex="1" parent="1">
          <mxGeometry x="179" y="650" width="60" height="30" as="geometry" />
        </mxCell>
        <mxCell id="letPco1XqqsJ-30KLWcD-32" value="&amp;lt;&amp;lt;Include&amp;gt;&amp;gt;" style="edgeStyle=orthogonalEdgeStyle;rounded=0;orthogonalLoop=1;jettySize=auto;html=1;entryX=0;entryY=0.5;entryDx=0;entryDy=0;endArrow=open;endFill=0;dashed=1;" edge="1" parent="1" source="letPco1XqqsJ-30KLWcD-20" target="letPco1XqqsJ-30KLWcD-31">
          <mxGeometry relative="1" as="geometry" />
        </mxCell>
        <mxCell id="letPco1XqqsJ-30KLWcD-20" value="[U008] Join Events" style="ellipse;whiteSpace=wrap;html=1;" vertex="1" parent="1">
          <mxGeometry x="68.05" y="690" width="110.95" height="60" as="geometry" />
        </mxCell>
        <mxCell id="letPco1XqqsJ-30KLWcD-21" value="[U013]Delete Event" style="ellipse;whiteSpace=wrap;html=1;" vertex="1" parent="1">
          <mxGeometry x="655" y="740" width="80" height="50" as="geometry" />
        </mxCell>
        <mxCell id="letPco1XqqsJ-30KLWcD-22" value="[U012] Add Event" style="ellipse;whiteSpace=wrap;html=1;" vertex="1" parent="1">
          <mxGeometry x="482.26" y="740" width="87.74" height="50" as="geometry" />
        </mxCell>
        <mxCell id="letPco1XqqsJ-30KLWcD-23" value="[U009] Cancel Join Event" style="ellipse;whiteSpace=wrap;html=1;" vertex="1" parent="1">
          <mxGeometry x="239" y="690" width="110.95" height="60" as="geometry" />
        </mxCell>
        <mxCell id="letPco1XqqsJ-30KLWcD-24" value="[U006] View Costumer" style="ellipse;whiteSpace=wrap;html=1;" vertex="1" parent="1">
          <mxGeometry x="490" y="510" width="90" height="60" as="geometry" />
        </mxCell>
        <mxCell id="letPco1XqqsJ-30KLWcD-25" value="[U007] View Event Calendar" style="ellipse;whiteSpace=wrap;html=1;" vertex="1" parent="1">
          <mxGeometry x="650" y="510" width="90" height="60" as="geometry" />
        </mxCell>
        <mxCell id="letPco1XqqsJ-30KLWcD-26" value="Catalog Management" style="text;html=1;align=center;verticalAlign=middle;whiteSpace=wrap;rounded=0;fontStyle=1" vertex="1" parent="1">
          <mxGeometry x="585" y="650" width="60" height="30" as="geometry" />
        </mxCell>
        <mxCell id="letPco1XqqsJ-30KLWcD-27" value="[U010] Add News" style="ellipse;whiteSpace=wrap;html=1;" vertex="1" parent="1">
          <mxGeometry x="480" y="680" width="90" height="50" as="geometry" />
        </mxCell>
        <mxCell id="letPco1XqqsJ-30KLWcD-28" value="[U011]Delete News" style="ellipse;whiteSpace=wrap;html=1;" vertex="1" parent="1">
          <mxGeometry x="656.13" y="678.75" width="80" height="52.5" as="geometry" />
        </mxCell>
        <mxCell id="letPco1XqqsJ-30KLWcD-29" value="[U014] Add Blog" style="ellipse;whiteSpace=wrap;html=1;" vertex="1" parent="1">
          <mxGeometry x="482.26" y="800" width="87.74" height="50" as="geometry" />
        </mxCell>
        <mxCell id="letPco1XqqsJ-30KLWcD-30" value="[U015] Delete Blog" style="ellipse;whiteSpace=wrap;html=1;" vertex="1" parent="1">
          <mxGeometry x="655" y="800" width="85" height="50" as="geometry" />
        </mxCell>
        <mxCell id="letPco1XqqsJ-30KLWcD-31" value="[U016] Payment System" style="ellipse;whiteSpace=wrap;html=1;" vertex="1" parent="1">
          <mxGeometry x="229.47" y="760" width="130" height="70" as="geometry" />
        </mxCell>
        <mxCell id="letPco1XqqsJ-30KLWcD-67" style="edgeStyle=orthogonalEdgeStyle;rounded=0;orthogonalLoop=1;jettySize=auto;html=1;entryX=0.5;entryY=1;entryDx=0;entryDy=0;" edge="1" parent="1" source="letPco1XqqsJ-30KLWcD-33" target="letPco1XqqsJ-30KLWcD-8">
          <mxGeometry relative="1" as="geometry">
            <Array as="points">
              <mxPoint x="1020" y="550" />
              <mxPoint x="1020" y="610" />
              <mxPoint x="129" y="610" />
            </Array>
          </mxGeometry>
        </mxCell>
        <mxCell id="letPco1XqqsJ-30KLWcD-68" style="edgeStyle=orthogonalEdgeStyle;rounded=0;orthogonalLoop=1;jettySize=auto;html=1;" edge="1" parent="1" source="letPco1XqqsJ-30KLWcD-33" target="letPco1XqqsJ-30KLWcD-9">
          <mxGeometry relative="1" as="geometry">
            <Array as="points">
              <mxPoint x="1020" y="550" />
              <mxPoint x="1020" y="610" />
              <mxPoint x="283" y="610" />
            </Array>
          </mxGeometry>
        </mxCell>
        <mxCell id="letPco1XqqsJ-30KLWcD-69" style="edgeStyle=orthogonalEdgeStyle;rounded=0;orthogonalLoop=1;jettySize=auto;html=1;entryX=0;entryY=0.5;entryDx=0;entryDy=0;" edge="1" parent="1" source="letPco1XqqsJ-30KLWcD-33" target="letPco1XqqsJ-30KLWcD-27">
          <mxGeometry relative="1" as="geometry">
            <Array as="points">
              <mxPoint x="1020" y="550" />
              <mxPoint x="1020" y="610" />
              <mxPoint x="460" y="610" />
              <mxPoint x="460" y="705" />
            </Array>
          </mxGeometry>
        </mxCell>
        <mxCell id="letPco1XqqsJ-30KLWcD-70" style="edgeStyle=orthogonalEdgeStyle;rounded=0;orthogonalLoop=1;jettySize=auto;html=1;entryX=1;entryY=0.5;entryDx=0;entryDy=0;" edge="1" parent="1" source="letPco1XqqsJ-30KLWcD-33" target="letPco1XqqsJ-30KLWcD-28">
          <mxGeometry relative="1" as="geometry">
            <Array as="points">
              <mxPoint x="1020" y="550" />
              <mxPoint x="1020" y="610" />
              <mxPoint x="820" y="610" />
              <mxPoint x="820" y="705" />
            </Array>
          </mxGeometry>
        </mxCell>
        <mxCell id="letPco1XqqsJ-30KLWcD-71" style="edgeStyle=orthogonalEdgeStyle;rounded=0;orthogonalLoop=1;jettySize=auto;html=1;entryX=0;entryY=0.5;entryDx=0;entryDy=0;" edge="1" parent="1" source="letPco1XqqsJ-30KLWcD-33" target="letPco1XqqsJ-30KLWcD-22">
          <mxGeometry relative="1" as="geometry">
            <Array as="points">
              <mxPoint x="1020" y="550" />
              <mxPoint x="1020" y="610" />
              <mxPoint x="460" y="610" />
              <mxPoint x="460" y="765" />
            </Array>
          </mxGeometry>
        </mxCell>
        <mxCell id="letPco1XqqsJ-30KLWcD-72" style="edgeStyle=orthogonalEdgeStyle;rounded=0;orthogonalLoop=1;jettySize=auto;html=1;entryX=0;entryY=0.5;entryDx=0;entryDy=0;" edge="1" parent="1" source="letPco1XqqsJ-30KLWcD-33" target="letPco1XqqsJ-30KLWcD-29">
          <mxGeometry relative="1" as="geometry">
            <Array as="points">
              <mxPoint x="1020" y="550" />
              <mxPoint x="1020" y="610" />
              <mxPoint x="460" y="610" />
              <mxPoint x="460" y="825" />
            </Array>
          </mxGeometry>
        </mxCell>
        <mxCell id="letPco1XqqsJ-30KLWcD-73" style="edgeStyle=orthogonalEdgeStyle;rounded=0;orthogonalLoop=1;jettySize=auto;html=1;entryX=1;entryY=0.5;entryDx=0;entryDy=0;" edge="1" parent="1" source="letPco1XqqsJ-30KLWcD-33" target="letPco1XqqsJ-30KLWcD-21">
          <mxGeometry relative="1" as="geometry">
            <Array as="points">
              <mxPoint x="1020" y="550" />
              <mxPoint x="1020" y="610" />
              <mxPoint x="820" y="610" />
              <mxPoint x="820" y="765" />
            </Array>
          </mxGeometry>
        </mxCell>
        <mxCell id="letPco1XqqsJ-30KLWcD-74" style="edgeStyle=orthogonalEdgeStyle;rounded=0;orthogonalLoop=1;jettySize=auto;html=1;entryX=1;entryY=0.5;entryDx=0;entryDy=0;" edge="1" parent="1" source="letPco1XqqsJ-30KLWcD-33" target="letPco1XqqsJ-30KLWcD-30">
          <mxGeometry relative="1" as="geometry">
            <Array as="points">
              <mxPoint x="1020" y="550" />
              <mxPoint x="1020" y="610" />
              <mxPoint x="820" y="610" />
              <mxPoint x="820" y="825" />
            </Array>
          </mxGeometry>
        </mxCell>
        <mxCell id="letPco1XqqsJ-30KLWcD-75" style="edgeStyle=orthogonalEdgeStyle;rounded=0;orthogonalLoop=1;jettySize=auto;html=1;entryX=0.5;entryY=1;entryDx=0;entryDy=0;" edge="1" parent="1" source="letPco1XqqsJ-30KLWcD-33" target="letPco1XqqsJ-30KLWcD-24">
          <mxGeometry relative="1" as="geometry">
            <Array as="points">
              <mxPoint x="1020" y="550" />
              <mxPoint x="1020" y="610" />
              <mxPoint x="535" y="610" />
            </Array>
          </mxGeometry>
        </mxCell>
        <mxCell id="letPco1XqqsJ-30KLWcD-33" value="Admin" style="shape=umlActor;verticalLabelPosition=bottom;verticalAlign=top;html=1;outlineConnect=0;" vertex="1" parent="1">
          <mxGeometry x="1060" y="520" width="30" height="60" as="geometry" />
        </mxCell>
        <mxCell id="letPco1XqqsJ-30KLWcD-59" style="edgeStyle=orthogonalEdgeStyle;rounded=0;orthogonalLoop=1;jettySize=auto;html=1;entryX=0.5;entryY=0;entryDx=0;entryDy=0;" edge="1" parent="1" source="letPco1XqqsJ-30KLWcD-48" target="letPco1XqqsJ-30KLWcD-9">
          <mxGeometry relative="1" as="geometry">
            <Array as="points">
              <mxPoint x="-120" y="510" />
              <mxPoint x="-120" y="350" />
              <mxPoint x="283" y="350" />
            </Array>
          </mxGeometry>
        </mxCell>
        <mxCell id="letPco1XqqsJ-30KLWcD-61" style="edgeStyle=orthogonalEdgeStyle;rounded=0;orthogonalLoop=1;jettySize=auto;html=1;entryX=0.5;entryY=0;entryDx=0;entryDy=0;" edge="1" parent="1" source="letPco1XqqsJ-30KLWcD-48" target="letPco1XqqsJ-30KLWcD-8">
          <mxGeometry relative="1" as="geometry">
            <Array as="points">
              <mxPoint x="-120" y="510" />
              <mxPoint x="-120" y="350" />
              <mxPoint x="129" y="350" />
            </Array>
          </mxGeometry>
        </mxCell>
        <mxCell id="letPco1XqqsJ-30KLWcD-62" style="edgeStyle=orthogonalEdgeStyle;rounded=0;orthogonalLoop=1;jettySize=auto;html=1;entryX=0.5;entryY=0;entryDx=0;entryDy=0;" edge="1" parent="1" source="letPco1XqqsJ-30KLWcD-48" target="letPco1XqqsJ-30KLWcD-15">
          <mxGeometry relative="1" as="geometry">
            <Array as="points">
              <mxPoint x="-120" y="510" />
              <mxPoint x="-120" y="350" />
              <mxPoint x="530" y="350" />
            </Array>
          </mxGeometry>
        </mxCell>
        <mxCell id="letPco1XqqsJ-30KLWcD-63" style="edgeStyle=orthogonalEdgeStyle;rounded=0;orthogonalLoop=1;jettySize=auto;html=1;entryX=0.5;entryY=0;entryDx=0;entryDy=0;" edge="1" parent="1" source="letPco1XqqsJ-30KLWcD-48" target="letPco1XqqsJ-30KLWcD-16">
          <mxGeometry relative="1" as="geometry">
            <Array as="points">
              <mxPoint x="-120" y="510" />
              <mxPoint x="-120" y="350" />
              <mxPoint x="695" y="350" />
            </Array>
          </mxGeometry>
        </mxCell>
        <mxCell id="letPco1XqqsJ-30KLWcD-64" style="edgeStyle=orthogonalEdgeStyle;rounded=0;orthogonalLoop=1;jettySize=auto;html=1;entryX=1;entryY=0.5;entryDx=0;entryDy=0;" edge="1" parent="1" source="letPco1XqqsJ-30KLWcD-48" target="letPco1XqqsJ-30KLWcD-25">
          <mxGeometry relative="1" as="geometry">
            <Array as="points">
              <mxPoint x="-120" y="510" />
              <mxPoint x="-120" y="350" />
              <mxPoint x="760" y="350" />
              <mxPoint x="760" y="540" />
            </Array>
          </mxGeometry>
        </mxCell>
        <mxCell id="letPco1XqqsJ-30KLWcD-65" style="edgeStyle=orthogonalEdgeStyle;rounded=0;orthogonalLoop=1;jettySize=auto;html=1;" edge="1" parent="1" source="letPco1XqqsJ-30KLWcD-48" target="letPco1XqqsJ-30KLWcD-20">
          <mxGeometry relative="1" as="geometry">
            <Array as="points">
              <mxPoint x="-120" y="510" />
              <mxPoint x="-120" y="620" />
              <mxPoint x="124" y="620" />
            </Array>
          </mxGeometry>
        </mxCell>
        <mxCell id="letPco1XqqsJ-30KLWcD-66" style="edgeStyle=orthogonalEdgeStyle;rounded=0;orthogonalLoop=1;jettySize=auto;html=1;" edge="1" parent="1" source="letPco1XqqsJ-30KLWcD-48" target="letPco1XqqsJ-30KLWcD-23">
          <mxGeometry relative="1" as="geometry">
            <Array as="points">
              <mxPoint x="-120" y="510" />
              <mxPoint x="-120" y="620" />
              <mxPoint x="295" y="620" />
            </Array>
          </mxGeometry>
        </mxCell>
        <mxCell id="letPco1XqqsJ-30KLWcD-48" value="Customer" style="shape=umlActor;verticalLabelPosition=bottom;verticalAlign=top;html=1;outlineConnect=0;" vertex="1" parent="1">
          <mxGeometry x="-220" y="480" width="30" height="60" as="geometry" />
        </mxCell>
      </root>
    </mxGraphModel>
  </diagram>
</mxfile>
